<?xml version="1.0" encoding="utf-8"?>
<svg xmlns="http://www.w3.org/2000/svg" height="376" viewBox="0 0 604 376" width="604">
	<title>Edward Montagu, Lord Chief Justice, temp. Henry VIII, died 1557. Son of Edward Montagu: Edward Montagu, Knt., “A worthy patriot in the reign of Queen Elizabeth,” died 1602. Children of Edward Montagu, Knt.: Edwd. Montagu, Knt., First Lord Montagu of Boughton. Walter, Knt. Henry, Lord Montagu, First Earl of Manchester. Charles, Knt. James, Bishop of Bath 1605, and Winchester 1616. Sidney, Knt., M.P. for Huntingdon in the Long Parliament, whence he was expelled. Mar. Paulina, daughter of John Pepys, of Cottenham, Camb., died 1644. Children of Sidney, Knt.: Henry, drowned at sea. Edward, a distinguished Parliamentary Captain, M.P. for Huntingdon, Admiral. First Earl of Sandwich, died 1672. Elizabeth, mar. Sir Gilbert Pyckering, of Titchmarsh.</title>
	<path stroke="#000" stroke-linecap="square" d="M77.04 84.74H544.8M247.72 263.27h302.8M544.8 84.53v4.99m6 169v5m-13 .27v5m-139-5.26v4.99m-151-5v5m207-184v5m-88-5v5m-63-11.73v6.73m0-41.73v8.6M176.6 84.53v4.99m89.2-5v5m-189-5v5"/>
	<text font-size="13" font-weight="400" letter-spacing="1" transform="translate(16 11)">
		<tspan x="224.52" y="12">E<tspan font-size="10.5">DWARD</tspan> M<tspan font-size="10.5">ONTAGU</tspan></tspan> <tspan x="135" y="26">Lord Chief Justice, temp. Henry VIII, died 1557.</tspan>
	</text>
	<text font-size="12" font-weight="400" letter-spacing=".92" transform="translate(16 11)">
		<tspan x="212.23" y="50">E<tspan font-size="10">DWARD</tspan> M<tspan font-size="10">ONTAGU</tspan>, Knt.,</tspan> <tspan x="111" y="63">“A worthy patriot in the reign of Queen Elizabeth,” died 1602.</tspan>
	</text>
	<text font-size="12" font-weight="400" letter-spacing=".92" transform="translate(16 11)">
		<tspan x="0" y="88">E<tspan font-size="10">DWD</tspan>. M<tspan font-size="10">ONTAGU</tspan>,</tspan> <tspan x="5.94" y="101">Knt., First Lord</tspan> <tspan x="19.38" y="114">Montagu of</tspan> <tspan x="22.29" y="127">Boughton.</tspan>
	</text>
	<text font-size="12" font-weight="400" letter-spacing=".92" transform="translate(16 11)">
		<tspan x="137" y="88">W<tspan font-size="10">ALTER</tspan>,</tspan> <tspan x="150.05" y="101">Knt.</tspan>
	</text>
	<text font-size="12" font-weight="400" letter-spacing=".92" transform="translate(16 11)">
		<tspan x="210" y="88"><tspan>H<tspan font-size="10">ENRY</tspan>,</tspan> Lord</tspan> <tspan x="220.53" y="101">Montagu,</tspan> <tspan x="213.12" y="114">First Earl of</tspan> <tspan x="213.11" y="127">Manchester.</tspan>
	</text>
	<text font-size="12" font-weight="400" letter-spacing=".92" transform="translate(16 11)">
		<tspan x="321.5" y="88">C<tspan font-size="10">HARLES</tspan>,</tspan> <tspan x="337.21" y="101">Knt.</tspan>
	</text>
	<text font-size="12" font-weight="400" letter-spacing=".92" transform="translate(16 11)">
		<tspan x="411.84" y="88">J<tspan font-size="10">AMES</tspan>,</tspan> <tspan x="403.75" y="101">Bishop of</tspan> <tspan x="401.44" y="114">Bath 1605,</tspan> <tspan x="421.07" y="127">and</tspan> <tspan x="399" y="140">Winchester</tspan> <tspan x="417.84" y="153">1616.</tspan>
	</text>
	<text font-size="12" font-weight="400" letter-spacing=".92" transform="translate(16 11)">
		<tspan x="491.82" y="88">S<tspan font-size="10">IDNEY</tspan>, Knt.</tspan> <tspan x="488.5" y="101">M.P. for Hun-</tspan> <tspan x="489.3" y="114">tingdon in the</tspan> <tspan x="493.47" y="127">Long Parlia-</tspan> <tspan x="490.63" y="140">ment, whence</tspan> <tspan x="500.65" y="153">he was ex-</tspan> <tspan x="493.23" y="166">pelled. M<tspan font-size="10">AR</tspan>.</tspan> <tspan x="502.69" y="179">P<tspan font-size="10">AULINA</tspan>,</tspan> <tspan x="496.73" y="192">daughter of</tspan> <tspan x="495.78" y="205">John Pepys,</tspan> <tspan x="488.5" y="218">of Cottenham,</tspan> <tspan x="508.82" y="231">Camb.,</tspan> <tspan x="500.25" y="244">died 1644.</tspan>
	</text>
	<text font-size="12" font-weight="400" letter-spacing=".92" transform="translate(16 11)">
		<tspan x="206.62" y="268">H<tspan font-size="10">ENRY</tspan>,</tspan> <tspan x="184" y="281">drowned at sea.</tspan>
	</text>
	<text font-size="12" font-weight="400" letter-spacing=".92" transform="translate(16 11)">
		<tspan x="354.38" y="268">E<tspan font-size="10">DWARD</tspan>,</tspan> <tspan x="337.67" y="281">a distinguished</tspan> <tspan x="314.44" y="294">Parliamentary Captain.</tspan> <tspan x="317.65" y="307">M.P. for Huntingdon,</tspan> <tspan x="357.25" y="320">Admiral,</tspan> <tspan x="314" y="333" font-style="italic">First Earl of Sandwich,</tspan> <tspan x="353.1" y="346">died 1672.</tspan>
	</text>
	<text font-size="12" font-weight="400" letter-spacing=".92" transform="translate(16 11)">
		<tspan x="489.98" y="268">E<tspan font-size="10">LIZABETH</tspan>,</tspan> <tspan x="501" y="281">mar. Sir</tspan> <tspan x="480" y="294">Gilbert Pycker-</tspan> <tspan x="505.86" y="307">ing, of</tspan> <tspan x="489.11" y="320">Titchmarsh.</tspan>
	</text>
</svg>
