<?xml version="1.0" encoding="utf-8"?>
<svg xmlns="http://www.w3.org/2000/svg" xmlns:svg="http://www.w3.org/2000/svg" version="1.1" viewBox="0 0 1400 440">
	<title>The titlepage for the Standard Ebooks edition of The Diary, by Samuel Pepys</title>
	<g aria-label="THE DIARY">
		<path d="m 427.91593,68.245613 h 18.33918 V 130 h 17.59065 V 68.245613 h 18.33918 V 52.807016 h -54.26901 z"/>
		<path d="m 511.11038,99.029239 h 24.88889 V 130 h 17.59064 V 52.807016 H 535.99927 V 83.590642 H 511.11038 V 52.807016 H 493.51973 V 130 h 17.59065 z"/>
		<path d="M 613.95541,52.807016 H 569.79167 V 130 h 44.16374 v -15.4386 h -26.5731 V 99.029239 H 612.8326 V 83.590642 H 587.38231 V 68.245613 h 26.5731 z"/>
		<path d="M 659.65278,52.807016 V 130 h 22.36258 c 21.23976,0 38.92397,-16.09357 38.92397,-38.643276 0,-22.45614 -17.77778,-38.549708 -38.92397,-38.549708 z M 677.24343,114.2807 V 68.526315 h 2.71345 c 13.09941,0 21.9883,10.011696 21.9883,22.923977 -0.0936,12.912278 -8.98246,22.830408 -21.9883,22.830408 z"/>
		<path d="M 751.32236,52.807016 H 733.73172 V 130 h 17.59064 z"/>
		<path d="m 806.81069,52.807016 h -16.2807 L 759.3721,130 h 18.90058 l 5.7076,-15.4386 H 813.3604 L 819.068,130 h 18.90059 z m 0.56141,46.31579 h -17.40351 l 8.60818,-22.45614 h 0.18714 z"/>
		<path d="M 845.88818,52.807016 V 130 h 17.59064 V 99.497075 L 887.05777,130 h 22.36257 l -26.5731,-31.906433 c 9.4503,-2.994152 15.81287,-10.760234 15.81287,-22.362574 0,-15.157895 -10.8538,-22.923977 -25.16959,-22.923977 z m 17.59064,34.245615 V 66.842104 h 2.05848 c 6.64328,0 14.59649,0.467836 14.59649,10.105263 0,9.637428 -7.95321,10.105264 -14.59649,10.105264 z"/>
		<path d="m 901.12939,52.807016 28.44444,42.5731 V 130 h 17.59065 V 95.380116 l 28.44444,-42.5731 h -21.1462 L 938.36915,77.508771 922.27559,52.807016 Z"/>
	</g>
	<g aria-label="SAMUEL PEPYS">
		<path d="m 426.31963,231.05263 c -9.33333,0 -18.87719,6.8772 -18.87719,17.68421 0,6.03509 4.07017,11.4386 11.01754,14.8772 6.87719,3.43859 13.05263,5.33333 13.05263,9.54385 0,5.40351 -5.47368,5.68422 -8.35088,5.68422 -6.45614,0 -14.17543,-6.52632 -14.17543,-6.52632 l -6.59649,11.08772 c 0,0 8.21052,7.64912 21.75438,7.64912 11.29825,0 21.82456,-4.8421 21.82456,-18.66666 0,-7.57895 -7.08772,-13.05264 -13.54386,-15.78948 -6.59649,-2.80702 -12.07017,-5.12281 -12.07017,-8.35088 0,-3.15789 2.38596,-5.19298 6.87719,-5.19298 5.96491,0 11.7193,4 11.7193,4 l 5.33333,-10.52631 c 0,0 -7.43859,-5.47369 -17.96491,-5.47369 z"/>
		<path d="M 486.53893,232.10526 H 474.3284 L 450.95998,290 h 14.17544 l 4.2807,-11.57895 h 22.03509 L 495.73191,290 h 14.17544 z m 0.42105,34.73685 H 473.90735 L 480.36349,250 h 0.14035 z"/>
		<path d="m 564.95669,290 h 13.19299 l -5.19299,-57.89474 H 558.92161 L 546.0795,265.50877 533.2374,232.10526 H 519.20231 L 514.00933,290 h 13.19298 l 2.73684,-34.31579 h 0.35088 l 11.85965,33.96491 h 7.85965 l 11.85964,-33.96491 h 0.35088 z"/>
		<path d="M 632.92598,232.10526 H 619.733 v 33.47369 c 0,9.68421 -2.94737,12.49123 -9.40351,12.49123 -6.45614,0 -9.40351,-2.80702 -9.40351,-12.49123 V 232.10526 H 587.733 v 37.33334 c 0,14.31579 7.85965,21.61403 22.59649,21.61403 14.73684,0 22.59649,-7.29824 22.59649,-21.61403 z"/>
		<path d="M 678.77796,232.10526 H 645.65515 V 290 h 33.12281 v -11.57895 h -19.92983 v -11.64912 h 19.08772 v -11.57895 h -19.08772 v -11.50877 h 19.92983 z"/>
		<path d="M 704.55538,232.10526 H 691.3624 V 290 h 33.1228 v -11.57895 h -19.92982 z"/>
		<path d="M 760.16174,232.10526 V 290 h 13.19298 v -21.47368 h 7.92983 c 11.29824,0 19.78947,-6.66667 19.78947,-18.5965 0,-11.99999 -8.49123,-17.82456 -19.78947,-17.82456 z M 773.35472,258 v -15.36842 h 3.7193 c 5.19298,0 10.10527,1.75439 10.10527,7.7193 0,5.89473 -4.91229,7.64912 -10.10527,7.64912 z"/>
		<path d="m 845.02246,232.10526 h -33.1228 V 290 h 33.1228 v -11.57895 h -19.92982 v -11.64912 h 19.08772 v -11.57895 h -19.08772 v -11.50877 h 19.92982 z"/>
		<path d="M 857.6069,232.10526 V 290 h 13.19298 v -21.47368 h 7.92983 c 11.29824,0 19.78947,-6.66667 19.78947,-18.5965 0,-11.99999 -8.49123,-17.82456 -19.78947,-17.82456 z M 870.79988,258 v -15.36842 h 3.7193 c 5.19298,0 10.10527,1.75439 10.10527,7.7193 0,5.89473 -4.91229,7.64912 -10.10527,7.64912 z"/>
		<path d="m 896.72422,232.10526 21.33333,31.92983 V 290 h 13.19298 v -25.96491 l 21.33334,-31.92983 h -15.85965 l -12.07018,18.52632 -12.07017,-18.52632 z"/>
		<path d="m 977.61895,231.05263 c -9.33334,0 -18.8772,6.8772 -18.8772,17.68421 0,6.03509 4.07018,11.4386 11.01755,14.8772 6.87719,3.43859 13.05263,5.33333 13.05263,9.54385 0,5.40351 -5.47369,5.68422 -8.35088,5.68422 -6.45614,0 -14.17544,-6.52632 -14.17544,-6.52632 l -6.59649,11.08772 c 0,0 8.21053,7.64912 21.75439,7.64912 11.29824,0 21.82456,-4.8421 21.82456,-18.66666 0,-7.57895 -7.08772,-13.05264 -13.54386,-15.78948 -6.59649,-2.80702 -12.07018,-5.12281 -12.07018,-8.35088 0,-3.15789 2.38597,-5.19298 6.8772,-5.19298 5.96491,0 11.71929,4 11.71929,4 l 5.33334,-10.52631 c 0,0 -7.4386,-5.47369 -17.96491,-5.47369 z"/>
	</g>
</svg>
